grf
version=1
nRows=26
nColumns=28
inDegrees=yes
endheader
time	ground_force_1_vx	ground_force_1_vy	ground_force_1_vz	ground_force_1_px	ground_force_1_py	ground_force_1_pz	ground_moment_1_mx	ground_moment_1_my	ground_moment_1_mz	ground_force_2_vx	ground_force_2_vy	ground_force_2_vz	ground_force_2_px	ground_force_2_py	ground_force_2_pz	ground_moment_2_mx	ground_moment_2_my	ground_moment_2_mz	ground_force_3_vx	ground_force_3_vy	ground_force_3_vz	ground_force_3_px	ground_force_3_py	ground_force_3_pz	ground_moment_3_mx	ground_moment_3_my	ground_moment_3_mz
2.005000	-55.491827	357.560216	8.355284	0.121993	0.000000	0.274054	-0.000000	0.092075	0.000000	41.343091	103.567644	0.256805	-0.267083	0.000000	0.403567	-0.000000	0.210363	-0.000000	0.000000	0.000000	0.000000	-0.958647	0.000000	0.179440	0.000000	0.000000	0.000000
2.005833	-56.431604	360.380868	8.611090	0.121890	0.000000	0.274021	-0.000000	0.098018	0.000000	39.577962	98.815206	0.517014	-0.267395	0.000000	0.403289	-0.000000	0.197615	-0.000000	0.000000	0.000000	0.000000	-0.849823	0.000000	0.623870	0.000000	0.000000	0.000000
2.006667	-57.380057	363.094160	8.866406	0.122136	0.000000	0.273879	-0.000000	0.104940	0.000000	37.802417	94.147587	0.760426	-0.266618	0.000000	0.403576	-0.000000	0.184670	-0.000000	0.000000	0.000000	0.000000	5.129229	0.000000	2.199485	0.000000	0.000000	0.000000
2.007500	-58.336468	365.700096	9.121728	0.121847	0.000000	0.274421	-0.000000	0.112630	0.000000	36.022340	89.571433	0.986284	-0.266632	0.000000	0.403775	-0.000000	0.171581	-0.000000	0.000000	0.000000	0.000000	-0.898328	0.000000	0.312926	0.000000	0.000000	0.000000
2.008333	-59.300031	368.196148	9.377461	0.122105	0.000000	0.274216	-0.000000	0.120857	0.000000	34.243828	85.093030	1.193958	-0.266602	0.000000	0.403829	-0.000000	0.158406	-0.000000	0.000000	0.000000	0.000000	-2.103049	-0.000000	-3.382958	0.000000	0.000000	0.000000
2.009167	-60.269689	370.577757	9.633900	0.122728	0.000000	0.274208	-0.000000	0.129378	0.000000	32.473120	80.718242	1.382937	-0.266503	0.000000	0.403623	-0.000000	0.145212	-0.000000	0.000000	0.000000	0.000000	-0.975387	0.000000	0.361104	0.000000	0.000000	0.000000
2.010000	-61.243995	372.838920	9.891224	0.123373	0.000000	0.274494	-0.000000	0.137959	0.000000	30.716484	76.452415	1.552824	-0.266235	0.000000	0.403443	-0.000000	0.132070	-0.000000	0.000000	0.000000	0.000000	-0.814517	0.000000	0.242144	0.000000	0.000000	0.000000
2.010833	-62.221020	374.972788	10.149496	0.123521	0.000000	0.274460	-0.000000	0.146377	0.000000	28.980066	72.300337	1.703342	-0.265666	0.000000	0.403819	-0.000000	0.119046	-0.000000	0.000000	0.000000	0.000000	-1.138336	0.000000	0.563931	0.000000	0.000000	0.000000
2.011667	-63.198304	376.972359	10.408677	0.122876	0.000000	0.273758	-0.000000	0.154438	0.000000	27.269752	68.266320	1.834349	-0.265800	0.000000	0.403576	-0.000000	0.106207	-0.000000	0.000000	0.000000	0.000000	-0.172481	0.000000	2.202194	0.000000	0.000000	0.000000
2.012500	-64.172844	378.831243	10.668635	0.122551	0.000000	0.273292	-0.000000	0.161995	0.000000	25.591052	64.354307	1.945858	-0.265758	0.000000	0.403170	-0.000000	0.093619	-0.000000	0.000000	0.000000	0.000000	-0.668401	0.000000	0.109008	0.000000	0.000000	0.000000
2.013333	-65.141139	380.544351	10.929165	0.122545	0.000000	0.273311	-0.000000	0.168964	0.000000	23.949023	60.567885	2.038036	-0.265226	0.000000	0.402571	-0.000000	0.081351	-0.000000	0.000000	0.000000	0.000000	-0.953113	0.000000	0.298933	0.000000	0.000000	0.000000
2.014167	-66.099282	382.108420	11.190014	0.122739	0.000000	0.273607	-0.000000	0.175323	0.000000	22.348229	56.910225	2.111216	-0.264713	0.000000	0.402312	-0.000000	0.069471	-0.000000	0.000000	0.000000	0.000000	-0.496002	-0.000000	-0.070832	0.000000	0.000000	0.000000
2.015000	-67.043101	383.522403	11.450902	0.122854	0.000000	0.273341	-0.000000	0.181118	0.000000	20.792718	53.384014	2.165893	-0.265946	0.000000	0.403823	-0.000000	0.058041	-0.000000	0.000000	0.000000	0.000000	-0.985238	0.000000	0.314233	0.000000	0.000000	0.000000
2.015833	-67.968322	384.787716	11.711551	0.122993	0.000000	0.273654	-0.000000	0.186457	0.000000	19.285998	49.991415	2.202721	-0.264702	0.000000	0.403493	-0.000000	0.047120	-0.000000	0.000000	0.000000	0.000000	-1.203663	-0.000000	-0.111260	0.000000	0.000000	0.000000
2.016667	-68.870726	385.908282	11.971723	0.123766	0.000000	0.274422	-0.000000	0.191501	0.000000	17.831032	46.734039	2.222491	-0.264745	0.000000	0.403301	-0.000000	0.036765	-0.000000	0.000000	0.000000	0.000000	-0.994259	0.000000	0.496511	0.000000	0.000000	0.000000
2.017500	-69.746286	386.890294	12.231244	0.123919	0.000000	0.274438	-0.000000	0.196450	-0.000000	16.430252	43.612950	2.226117	-0.264921	0.000000	0.403432	-0.000000	0.027031	-0.000000	0.000000	0.000000	0.000000	-1.962170	0.000000	0.631030	0.000000	0.000000	0.000000
2.018333	-70.591289	387.741761	12.490019	0.123208	0.000000	0.273476	0.000000	0.201523	-0.000000	15.085577	40.628667	2.214604	-0.264550	0.000000	0.403696	-0.000000	0.017965	-0.000000	0.000000	0.000000	0.000000	-2.519277	0.000000	0.290705	0.000000	0.000000	0.000000
2.019167	-71.402472	388.472020	12.748018	0.123488	0.000000	0.273279	0.000000	0.206934	-0.000000	13.798434	37.781155	2.189024	-0.265049	0.000000	0.403072	-0.000000	0.009605	-0.000000	0.000000	0.000000	0.000000	-1.909960	0.000000	0.100428	0.000000	0.000000	0.000000
2.020000	-72.177128	389.091362	13.005266	0.122919	0.000000	0.272760	0.000000	0.212880	-0.000000	12.569785	35.069836	2.150503	-0.264709	0.000000	0.402628	-0.000000	0.001982	-0.000000	0.000000	0.000000	0.000000	-1.059071	0.000000	0.490810	0.000000	0.000000	0.000000
2.020833	-72.913130	389.610755	13.261834	0.123113	0.000000	0.273034	0.000000	0.219535	-0.000000	11.400168	32.493591	2.100205	-0.264764	0.000000	0.402756	-0.000000	-0.004880	-0.000000	0.000000	0.000000	0.000000	-0.956436	0.000000	0.341479	0.000000	0.000000	0.000000
2.021667	-73.608899	390.041553	13.517850	0.123457	0.000000	0.273011	0.000000	0.227046	-0.000000	10.289742	30.050752	2.039316	-0.264486	0.000000	0.402855	-0.000000	-0.010968	-0.000000	0.000000	0.000000	0.000000	-0.797737	0.000000	0.209012	0.000000	0.000000	0.000000
2.022500	-74.263354	390.395156	13.773505	0.123430	0.000000	0.272203	0.000000	0.235521	-0.000000	9.238333	27.739100	1.969045	-0.263266	0.000000	0.402314	-0.000000	-0.016282	-0.000000	0.000000	0.000000	0.000000	-0.952293	0.000000	0.337744	0.000000	0.000000	0.000000
2.023333	-74.875835	390.682696	14.029045	0.123343	0.000000	0.272457	0.000000	0.245028	-0.000000	8.245478	25.555897	1.890611	-0.263663	0.000000	0.401709	-0.000000	-0.020831	-0.000000	0.000000	0.000000	0.000000	-0.611864	-0.000000	-0.037556	0.000000	0.000000	0.000000
2.024167	-75.446041	390.914798	14.284766	0.123240	0.000000	0.272634	0.000000	0.255596	-0.000000	7.310466	23.497942	1.805236	-0.263275	0.000000	0.401878	-0.000000	-0.024626	-0.000000	0.000000	0.000000	0.000000	-2.293145	-0.000000	-1.059799	0.000000	0.000000	0.000000
2.025000	-75.973969	391.101454	14.541016	0.123513	0.000000	0.272975	0.000000	0.267222	-0.000000	6.432377	21.561641	1.714121	-0.263290	0.000000	0.402326	-0.000000	-0.027682	-0.000000	0.000000	0.000000	0.000000	-0.969564	-0.000000	-0.617351	0.000000	0.000000	0.000000
2.025833	-76.459850	391.251940	14.798204	0.123559	0.000000	0.272979	0.000000	0.279880	-0.000000	5.610134	19.743081	1.618429	-0.263512	0.000000	0.402415	-0.000000	-0.030017	-0.000000	0.000000	0.000000	0.000000	0.845576	0.000000	0.959043	0.000000	0.000000	0.000000
